<svg width="2480" height="3075" viewBox="0 0 2480 3075" fill="none" xmlns="http://www.w3.org/2000/svg">
<path d="M44 2244.59H2418.97M71.2359 76.2759L1254.5 2181L2418.97 61.7126M76.6831 2259.06C115.419 2508.02 401.698 3005.94 1236.93 3005.94C2072.17 3005.94 2364.5 2508.02 2406.26 2259.06M2117.56 60.6348C1904.47 75.9735 1447.69 215.286 1325.3 637.898C1202.91 1060.51 1460.08 1395.63 1603.96 1510.36M844.465 1504.2C999.574 1357.87 1266.26 964.153 1092.12 559.951C917.979 155.749 505.836 58.7462 321.532 60.7701M1640.02 1544.72L2408.08 2089.06M848.367 1494.09L58.5258 2119.81M2418.97 60H60.3415V3014.98H2415.34L2418.97 60Z" stroke="black" stroke-width="120"/>
</svg>
